<mxfile host="65bd71144e">
    <diagram id="76mXXPEnGAw5vKpgmwrI" name="インフラ構成図">
        <mxGraphModel dx="793" dy="575" grid="1" gridSize="10" guides="1" tooltips="1" connect="1" arrows="1" fold="1" page="1" pageScale="1" pageWidth="827" pageHeight="1169" math="0" shadow="0">
            <root>
                <mxCell id="0"/>
                <mxCell id="1" parent="0"/>
                <mxCell id="3YTFdKZ0B51UTodazgy4-1" value="users" style="outlineConnect=0;gradientColor=none;fontColor=#545B64;strokeColor=none;fillColor=#879196;dashed=0;verticalLabelPosition=bottom;verticalAlign=top;align=center;html=1;fontSize=12;fontStyle=0;aspect=fixed;shape=mxgraph.aws4.illustration_users;pointerEvents=1" vertex="1" parent="1">
                    <mxGeometry x="50" y="380" width="100" height="100" as="geometry"/>
                </mxCell>
                <mxCell id="3YTFdKZ0B51UTodazgy4-2" value="" style="outlineConnect=0;dashed=0;verticalLabelPosition=bottom;verticalAlign=top;align=center;html=1;shape=mxgraph.aws3.cloudfront;fillColor=#F58536;gradientColor=none;" vertex="1" parent="1">
                    <mxGeometry x="230" y="366.5" width="76.5" height="93" as="geometry"/>
                </mxCell>
                <mxCell id="3YTFdKZ0B51UTodazgy4-3" value="Amazon S3" style="outlineConnect=0;fontColor=#232F3E;gradientColor=none;strokeColor=#ffffff;fillColor=#232F3E;dashed=0;verticalLabelPosition=middle;verticalAlign=bottom;align=center;html=1;whiteSpace=wrap;fontSize=10;fontStyle=1;spacing=3;shape=mxgraph.aws4.productIcon;prIcon=mxgraph.aws4.s3;" vertex="1" parent="1">
                    <mxGeometry x="334" y="366.5" width="80" height="100" as="geometry"/>
                </mxCell>
            </root>
        </mxGraphModel>
    </diagram>
    <diagram id="-ucfSpLeJckldyN6FZ9P" name="フロントエンド概念図">
        <mxGraphModel dx="793" dy="575" grid="1" gridSize="10" guides="1" tooltips="1" connect="1" arrows="1" fold="1" page="1" pageScale="1" pageWidth="827" pageHeight="1169" math="0" shadow="0">
            <root>
                <mxCell id="PAakL-OHHemov_SoWUAD-0"/>
                <mxCell id="PAakL-OHHemov_SoWUAD-1" parent="PAakL-OHHemov_SoWUAD-0"/>
                <mxCell id="a6TWhM6U_yQLls39Focf-0" value="Dispatcher" style="whiteSpace=wrap;html=1;aspect=fixed;" vertex="1" parent="PAakL-OHHemov_SoWUAD-1">
                    <mxGeometry x="130" y="180" width="80" height="80" as="geometry"/>
                </mxCell>
                <mxCell id="a6TWhM6U_yQLls39Focf-2" style="edgeStyle=orthogonalEdgeStyle;rounded=0;orthogonalLoop=1;jettySize=auto;html=1;" edge="1" parent="PAakL-OHHemov_SoWUAD-1" source="a6TWhM6U_yQLls39Focf-1" target="a6TWhM6U_yQLls39Focf-0">
                    <mxGeometry relative="1" as="geometry"/>
                </mxCell>
                <mxCell id="a6TWhM6U_yQLls39Focf-1" value="Action" style="shape=process;whiteSpace=wrap;html=1;backgroundOutline=1;" vertex="1" parent="PAakL-OHHemov_SoWUAD-1">
                    <mxGeometry x="330" y="190" width="120" height="60" as="geometry"/>
                </mxCell>
            </root>
        </mxGraphModel>
    </diagram>
</mxfile>